<svg xmlns="http://www.w3.org/2000/svg" xmlns:xlink="http://www.w3.org/1999/xlink" version="1.1" width="256" height="256" viewBox="0 0 256 256" xml:space="preserve">

<defs>
</defs>
<g style="stroke: none; stroke-width: 0; stroke-dasharray: none; stroke-linecap: butt; stroke-linejoin: miter; stroke-miterlimit: 10; fill: none; fill-rule: nonzero; opacity: 1;" transform="translate(1.4065934065934016 1.4065934065934016) scale(2.81 2.81)" >
	<path d="M 77.5 68.52 H 52.645 c -0.553 0 -1 -0.447 -1 -1 s 0.447 -1 1 -1 H 77.5 c 0.553 0 1 0.447 1 1 S 78.053 68.52 77.5 68.52 z" style="stroke: none; stroke-width: 1; stroke-dasharray: none; stroke-linecap: butt; stroke-linejoin: miter; stroke-miterlimit: 10; fill: rgb(0,0,0); fill-rule: nonzero; opacity: 1;" transform=" matrix(1 0 0 1 0 0) " stroke-linecap="round" />
	<path d="M 54.34 23.48 H 12.5 c -0.552 0 -1 -0.448 -1 -1 s 0.448 -1 1 -1 h 41.84 c 0.553 0 1 0.448 1 1 S 54.893 23.48 54.34 23.48 z" style="stroke: none; stroke-width: 1; stroke-dasharray: none; stroke-linecap: butt; stroke-linejoin: miter; stroke-miterlimit: 10; fill: rgb(0,0,0); fill-rule: nonzero; opacity: 1;" transform=" matrix(1 0 0 1 0 0) " stroke-linecap="round" />
	<path d="M 77.5 46 H 32.092 c -0.552 0 -1 -0.448 -1 -1 s 0.448 -1 1 -1 H 77.5 c 0.553 0 1 0.448 1 1 S 78.053 46 77.5 46 z" style="stroke: none; stroke-width: 1; stroke-dasharray: none; stroke-linecap: butt; stroke-linejoin: miter; stroke-miterlimit: 10; fill: rgb(0,0,0); fill-rule: nonzero; opacity: 1;" transform=" matrix(1 0 0 1 0 0) " stroke-linecap="round" />
	<path d="M 26.114 51.979 c -3.848 0 -6.978 -3.131 -6.978 -6.979 s 3.13 -6.978 6.978 -6.978 c 3.848 0 6.979 3.13 6.979 6.978 S 29.962 51.979 26.114 51.979 z M 26.114 40.022 c -2.745 0 -4.978 2.233 -4.978 4.978 s 2.233 4.979 4.978 4.979 s 4.979 -2.233 4.979 -4.979 S 28.859 40.022 26.114 40.022 z" style="stroke: none; stroke-width: 1; stroke-dasharray: none; stroke-linecap: butt; stroke-linejoin: miter; stroke-miterlimit: 10; fill: rgb(0,0,0); fill-rule: nonzero; opacity: 1;" transform=" matrix(1 0 0 1 0 0) " stroke-linecap="round" />
	<path d="M 46.667 74.498 c -3.848 0 -6.979 -3.131 -6.979 -6.979 s 3.13 -6.979 6.979 -6.979 c 3.848 0 6.978 3.131 6.978 6.979 S 50.515 74.498 46.667 74.498 z M 46.667 62.541 c -2.745 0 -4.979 2.233 -4.979 4.979 s 2.233 4.979 4.979 4.979 c 2.744 0 4.978 -2.233 4.978 -4.979 S 49.411 62.541 46.667 62.541 z" style="stroke: none; stroke-width: 1; stroke-dasharray: none; stroke-linecap: butt; stroke-linejoin: miter; stroke-miterlimit: 10; fill: rgb(0,0,0); fill-rule: nonzero; opacity: 1;" transform=" matrix(1 0 0 1 0 0) " stroke-linecap="round" />
	<path d="M 60.317 29.458 c -3.848 0 -6.978 -3.13 -6.978 -6.978 s 3.13 -6.978 6.978 -6.978 s 6.979 3.13 6.979 6.978 S 64.165 29.458 60.317 29.458 z M 60.317 17.502 c -2.744 0 -4.978 2.233 -4.978 4.978 s 2.233 4.978 4.978 4.978 c 2.745 0 4.979 -2.233 4.979 -4.978 S 63.063 17.502 60.317 17.502 z" style="stroke: none; stroke-width: 1; stroke-dasharray: none; stroke-linecap: butt; stroke-linejoin: miter; stroke-miterlimit: 10; fill: rgb(0,0,0); fill-rule: nonzero; opacity: 1;" transform=" matrix(1 0 0 1 0 0) " stroke-linecap="round" />
	<path d="M 40.688 68.52 H 12.5 c -0.552 0 -1 -0.447 -1 -1 s 0.448 -1 1 -1 h 28.188 c 0.552 0 1 0.447 1 1 S 41.241 68.52 40.688 68.52 z" style="stroke: none; stroke-width: 1; stroke-dasharray: none; stroke-linecap: butt; stroke-linejoin: miter; stroke-miterlimit: 10; fill: rgb(0,0,0); fill-rule: nonzero; opacity: 1;" transform=" matrix(1 0 0 1 0 0) " stroke-linecap="round" />
	<path d="M 20.136 46 H 12.5 c -0.552 0 -1 -0.448 -1 -1 s 0.448 -1 1 -1 h 7.636 c 0.552 0 1 0.448 1 1 S 20.688 46 20.136 46 z" style="stroke: none; stroke-width: 1; stroke-dasharray: none; stroke-linecap: butt; stroke-linejoin: miter; stroke-miterlimit: 10; fill: rgb(0,0,0); fill-rule: nonzero; opacity: 1;" transform=" matrix(1 0 0 1 0 0) " stroke-linecap="round" />
	<path d="M 77.5 23.48 H 66.296 c -0.553 0 -1 -0.448 -1 -1 s 0.447 -1 1 -1 H 77.5 c 0.553 0 1 0.448 1 1 S 78.053 23.48 77.5 23.48 z" style="stroke: none; stroke-width: 1; stroke-dasharray: none; stroke-linecap: butt; stroke-linejoin: miter; stroke-miterlimit: 10; fill: rgb(0,0,0); fill-rule: nonzero; opacity: 1;" transform=" matrix(1 0 0 1 0 0) " stroke-linecap="round" />
	<path d="M 76.551 90 H 13.449 C 6.033 90 0 83.967 0 76.551 V 13.449 C 0 6.033 6.033 0 13.449 0 h 63.102 C 83.967 0 90 6.033 90 13.449 v 63.102 C 90 83.967 83.967 90 76.551 90 z M 13.449 2 C 7.136 2 2 7.136 2 13.449 v 63.102 C 2 82.864 7.136 88 13.449 88 h 63.102 C 82.864 88 88 82.864 88 76.551 V 13.449 C 88 7.136 82.864 2 76.551 2 H 13.449 z" style="stroke: none; stroke-width: 1; stroke-dasharray: none; stroke-linecap: butt; stroke-linejoin: miter; stroke-miterlimit: 10; fill: rgb(0,0,0); fill-rule: nonzero; opacity: 1;" transform=" matrix(1 0 0 1 0 0) " stroke-linecap="round" />
</g>
</svg>